<svg width="83" height="122" viewBox="0 0 83 122" fill="none" xmlns="http://www.w3.org/2000/svg">
<path d="M76.7047 63.446C73.63 69.7341 68.9007 75.0489 63.1138 78.8984C64.9504 71.9772 65.9979 64.079 65.9979 55.684C65.9979 47.9306 65.0851 40.6244 63.5031 34.097C59.5248 50.5132 46.4003 61.0007 46.4003 61.0007C46.4003 61.0007 56.1989 36.5432 41.5009 2.30271C41.5009 31.6517 17.0043 36.9684 17.0043 65.8922C17.0043 70.0811 17.2917 73.8629 17.7794 77.3387C12.9689 73.6513 8.9839 68.9419 6.29752 63.446C3.76649 68.6235 2.30634 74.4178 2.30634 80.5667C2.30634 102.179 19.8543 119.699 41.5009 119.699C63.1475 119.699 80.6959 102.179 80.6959 80.5667C80.6959 74.4178 79.235 68.6235 76.7047 63.446" fill="#41A512"/>
<path d="M52.7386 71.9925C58.3154 68.2822 62.873 63.1895 65.9502 57.1979C65.9588 56.6888 65.9979 56.1969 65.9979 55.684C65.9979 47.9307 65.0851 40.6244 63.5031 34.097C61.8761 40.8112 58.7193 46.5102 55.5559 50.9289C55.3915 58.5135 54.4157 65.6729 52.7386 71.9925" fill="#36890F"/>
<path d="M36.0253 54.0948C36.0253 54.0948 44.1258 47.5922 49.5281 36.8425C49.1964 27.3618 47.2014 15.5835 41.5008 2.30272C41.5008 9.09419 40.1558 14.5653 38.1396 19.3739C41.4615 40.4862 36.0253 54.0948 36.0253 54.0948" fill="#36890F"/>
<path d="M76.7047 63.446C75.0299 66.8722 72.828 69.9743 70.2671 72.7428C70.2738 73.0517 70.3205 73.35 70.3205 73.6608C70.3205 95.2726 52.7724 112.793 31.1259 112.793C25.3349 112.793 19.8556 111.506 14.9087 109.255C21.8989 115.718 31.2232 119.699 41.5008 119.699C63.1475 119.699 80.696 102.179 80.696 80.5667C80.696 74.4178 79.235 68.6235 76.7047 63.446Z" fill="#36890F"/>
<path d="M16.1398 88.6232C16.1398 88.6232 23.0285 105.887 40.3343 105.887C57.6399 105.887 64.5571 92.0762 64.5571 92.0762C64.5571 92.0762 47.265 95.5291 50.7233 78.2644C50.7233 78.2644 46.1121 79.9156 41.5009 85.9959C41.5009 85.9959 29.9732 81.7174 33.4316 64.4537C33.4316 64.4537 26.5148 81.7174 29.9732 92.0762C29.9732 92.0762 23.0564 95.5291 16.1398 88.6232" fill="#9EF50E"/>
<path d="M55.809 91.4231C52.7648 95.4567 45.7327 102.434 33.4175 102.434C30.8102 102.434 28.4673 102.009 26.3208 101.343C29.9157 103.927 34.5257 105.887 40.3343 105.887C57.6399 105.887 64.557 92.0762 64.557 92.0762C64.557 92.0762 59.8282 92.9961 55.809 91.4231" fill="#8FDC0F"/>
<path d="M41.5001 117.396C21.1599 117.396 4.61107 100.874 4.61107 80.5667C4.61107 76.4912 5.28434 72.5035 6.61502 68.6635C9.19751 72.6293 12.5118 76.2033 16.3776 79.1644C17.1184 79.7373 18.1361 79.7974 18.9421 79.3283C19.7504 78.8555 20.194 77.9432 20.0634 77.0194C19.5568 73.4072 19.3091 69.7675 19.3091 65.8922C19.3091 52.2158 25.019 44.186 31.0644 35.6843C35.8422 28.9652 40.7437 22.0737 42.7994 12.3193C51.8325 40.3889 44.3416 59.9349 44.2583 60.1484C43.8733 61.1199 44.1885 62.2305 45.0306 62.8511C45.8704 63.4708 47.0232 63.4526 47.8406 62.7968C48.3021 62.4278 57.3623 55.0815 62.8402 43.0077C63.4054 47.1241 63.6914 51.3636 63.6914 55.684C63.6914 63.568 62.721 71.391 60.8836 78.3092C60.6382 79.2339 60.9917 80.214 61.7708 80.7707C62.552 81.3265 63.5945 81.3446 64.3916 80.8136C69.2139 77.6057 73.2987 73.4635 76.3924 68.6769C77.7187 72.5121 78.389 76.4931 78.389 80.5667C78.389 100.874 61.8406 117.396 41.5001 117.396ZM76.7047 61.1447C75.8253 61.1447 75.0213 61.6461 74.6336 62.4374C72.6857 66.4184 70.014 70.0191 66.7666 73.0698C67.7778 67.5148 68.302 61.6118 68.302 55.684C68.302 48.005 67.4426 40.5605 65.742 33.5555C65.4928 32.524 64.5675 31.7957 63.5021 31.7957C62.4372 31.7957 61.5118 32.524 61.2619 33.5555C59.222 41.9676 54.5929 48.8058 50.7856 53.2988C52.6228 43.0716 53.5099 24.4379 43.619 1.39706C43.1867 0.389402 42.1127 -0.174006 41.0364 0.0481184C39.9646 0.268336 39.1947 1.21022 39.1947 2.30273C39.1947 16.2956 33.4195 24.4198 27.3044 33.0188C21.1059 41.736 14.698 50.7477 14.698 65.8922C14.698 67.8684 14.7588 69.7875 14.8826 71.676C12.2146 68.9114 10.0035 65.7816 8.36899 62.4374C7.98399 61.6461 7.17781 61.1447 6.29753 61.1447C5.41716 61.1447 4.61107 61.6461 4.22608 62.4374C1.42072 68.1716 0 74.2719 0 80.5667C0 103.412 18.6179 122 41.5001 122C64.3825 122 83 103.412 83 80.5667C83 74.27 81.5801 68.1697 78.7767 62.4374C78.3919 61.6461 77.585 61.1447 76.7047 61.1447Z" fill="#042C03"/>
</svg>
